# xmcd
#
# Track frame offsets: 
#        150
#        35926
#        54751
#        83701
#        127502
#        179854
#        213080
#        242480
#        288607
#
# Disc length: 4310 seconds
#
# Revision: 2
# Processed by: cddbd v1.5.2PL0 Copyright (c) Steve Scherf et al.
# Submitted via: ExactAudioCopy v0.99pb3
#
DISCID=7810d409
DTITLE=Francesco Cafiso - New York Lullaby
DYEAR=2005
DGENRE=Jazz
TTITLE0=Lullaby Of Birdland
TTITLE1=Reflections
TTITLE2=Polka Dots And Moonbeams
TTITLE3=My Old Flame
TTITLE4=Estate
TTITLE5=What's New
TTITLE6=Imagination
TTITLE7=Willow Weep For Me
TTITLE8=Speak Low
EXTD=YEAR: 2005
EXTT0=
EXTT1=
EXTT2=
EXTT3=
EXTT4=
EXTT5=
EXTT6=
EXTT7=
EXTT8=
PLAYORDER=
